<svg
    xmlns="http://www.w3.org/2000/svg"
    class="solo2"
    version="1.1"
    xmlns:xlink="http://www.w3.org/1999/xlink"
    xmlns:svgjs="http://svgjs.dev/svgjs"
    viewBox="0 0 800 800"
    opacity="1"
>
    <defs>
        <linearGradient
            gradientTransform="rotate(270)"
            x1="50%"
            y1="0%"
            x2="50%"
            y2="100%"
            id="sssquiggly-grad"
        >
            <stop
                stop-color="hsla(206, 0%, 24%, 1.00)"
                stop-opacity="1"
                offset="0%"
            ></stop>
            <stop
                stop-color="hsla(0, 0%, 70%, 1.00)"
                stop-opacity="1"
                offset="100%"
            ></stop>
        </linearGradient>
    </defs>
    <g
        stroke-width="2"
        stroke="url(#sssquiggly-grad)"
        fill="none"
        stroke-linecap="round"
        transform="matrix(1,0,0,1,-5,131.05116271972656)"
    >
        <path
            stroke-dasharray="100 20"
            d="M10,10C24.583333333333332,10.416666666666666,48.75,17.208333333333336,80,12C111.25,6.791666666666666,126.66666666666666,-16.875,160,-15C193.33333333333334,-13.125,206.66666666666666,19.333333333333332,240,21C273.3333333333333,22.666666666666668,286.6666666666667,-7,320,-7C353.3333333333333,-7,366.6666666666667,21,400,21C433.3333333333333,21,446.6666666666667,-8.041666666666666,480,-7C513.3333333333334,-5.958333333333333,526.6666666666666,24.75,560,26C593.3333333333334,27.25,606.6666666666666,-4.541666666666667,640,-1C673.3333333333334,2.541666666666667,686.6666666666666,43.416666666666664,720,43C753.3333333333334,42.583333333333336,783.3333333333334,6.583333333333334,800,-3"
        ></path>
        <path
            stroke-dasharray="200 55"
            d="M10,10C24.583333333333332,10.416666666666666,48.75,17.208333333333336,80,12C111.25,6.791666666666666,126.66666666666666,-16.875,160,-15C193.33333333333334,-13.125,206.66666666666666,19.333333333333332,240,21C273.3333333333333,22.666666666666668,286.6666666666667,-7,320,-7C353.3333333333333,-7,366.6666666666667,21,400,21C433.3333333333333,21,446.6666666666667,-8.041666666666666,480,-7C513.3333333333334,-5.958333333333333,526.6666666666666,24.75,560,26C593.3333333333334,27.25,606.6666666666666,-4.541666666666667,640,-1C673.3333333333334,2.541666666666667,686.6666666666666,43.416666666666664,720,43C753.3333333333334,42.583333333333336,783.3333333333334,6.583333333333334,800,-3"
            transform="matrix(1,0,0,1,0,510)"
        ></path>
        <path
            d="M10,10C24.583333333333332,10.416666666666666,48.75,17.208333333333336,80,12C111.25,6.791666666666666,126.66666666666666,-16.875,160,-15C193.33333333333334,-13.125,206.66666666666666,19.333333333333332,240,21C273.3333333333333,22.666666666666668,286.6666666666667,-7,320,-7C353.3333333333333,-7,366.6666666666667,21,400,21C433.3333333333333,21,446.6666666666667,-8.041666666666666,480,-7C513.3333333333334,-5.958333333333333,526.6666666666666,24.75,560,26C593.3333333333334,27.25,606.6666666666666,-4.541666666666667,640,-1C673.3333333333334,2.541666666666667,686.6666666666666,43.416666666666664,720,43C753.3333333333334,42.583333333333336,783.3333333333334,6.583333333333334,800,-3"
            transform="matrix(1,0,0,1,0,459)"
        ></path>
        <path
            stroke-dasharray="100 10"
            d="M10,10C24.583333333333332,10.416666666666666,48.75,17.208333333333336,80,12C111.25,6.791666666666666,126.66666666666666,-16.875,160,-15C193.33333333333334,-13.125,206.66666666666666,19.333333333333332,240,21C273.3333333333333,22.666666666666668,286.6666666666667,-7,320,-7C353.3333333333333,-7,366.6666666666667,21,400,21C433.3333333333333,21,446.6666666666667,-8.041666666666666,480,-7C513.3333333333334,-5.958333333333333,526.6666666666666,24.75,560,26C593.3333333333334,27.25,606.6666666666666,-4.541666666666667,640,-1C673.3333333333334,2.541666666666667,686.6666666666666,43.416666666666664,720,43C753.3333333333334,42.583333333333336,783.3333333333334,6.583333333333334,800,-3"
            transform="matrix(1,0,0,1,0,408)"
        ></path>
        <path
            stroke-dasharray="100 15"
            d="M10,10C24.583333333333332,10.416666666666666,48.75,17.208333333333336,80,12C111.25,6.791666666666666,126.66666666666666,-16.875,160,-15C193.33333333333334,-13.125,206.66666666666666,19.333333333333332,240,21C273.3333333333333,22.666666666666668,286.6666666666667,-7,320,-7C353.3333333333333,-7,366.6666666666667,21,400,21C433.3333333333333,21,446.6666666666667,-8.041666666666666,480,-7C513.3333333333334,-5.958333333333333,526.6666666666666,24.75,560,26C593.3333333333334,27.25,606.6666666666666,-4.541666666666667,640,-1C673.3333333333334,2.541666666666667,686.6666666666666,43.416666666666664,720,43C753.3333333333334,42.583333333333336,783.3333333333334,6.583333333333334,800,-3"
            transform="matrix(1,0,0,1,0,357)"
        ></path>
        <path
            stroke-dasharray="100 20"
            d="M10,10C24.583333333333332,10.416666666666666,48.75,17.208333333333336,80,12C111.25,6.791666666666666,126.66666666666666,-16.875,160,-15C193.33333333333334,-13.125,206.66666666666666,19.333333333333332,240,21C273.3333333333333,22.666666666666668,286.6666666666667,-7,320,-7C353.3333333333333,-7,366.6666666666667,21,400,21C433.3333333333333,21,446.6666666666667,-8.041666666666666,480,-7C513.3333333333334,-5.958333333333333,526.6666666666666,24.75,560,26C593.3333333333334,27.25,606.6666666666666,-4.541666666666667,640,-1C673.3333333333334,2.541666666666667,686.6666666666666,43.416666666666664,720,43C753.3333333333334,42.583333333333336,783.3333333333334,6.583333333333334,800,-3"
            transform="matrix(1,0,0,1,0,306)"
        ></path>
        <path
            stroke-dasharray="100 20"
            d="M10,10C24.583333333333332,10.416666666666666,48.75,17.208333333333336,80,12C111.25,6.791666666666666,126.66666666666666,-16.875,160,-15C193.33333333333334,-13.125,206.66666666666666,19.333333333333332,240,21C273.3333333333333,22.666666666666668,286.6666666666667,-7,320,-7C353.3333333333333,-7,366.6666666666667,21,400,21C433.3333333333333,21,446.6666666666667,-8.041666666666666,480,-7C513.3333333333334,-5.958333333333333,526.6666666666666,24.75,560,26C593.3333333333334,27.25,606.6666666666666,-4.541666666666667,640,-1C673.3333333333334,2.541666666666667,686.6666666666666,43.416666666666664,720,43C753.3333333333334,42.583333333333336,783.3333333333334,6.583333333333334,800,-3"
            transform="matrix(1,0,0,1,0,255)"
        ></path>
        <path
            stroke-dasharray="100 20"
            d="M10,10C24.583333333333332,10.416666666666666,48.75,17.208333333333336,80,12C111.25,6.791666666666666,126.66666666666666,-16.875,160,-15C193.33333333333334,-13.125,206.66666666666666,19.333333333333332,240,21C273.3333333333333,22.666666666666668,286.6666666666667,-7,320,-7C353.3333333333333,-7,366.6666666666667,21,400,21C433.3333333333333,21,446.6666666666667,-8.041666666666666,480,-7C513.3333333333334,-5.958333333333333,526.6666666666666,24.75,560,26C593.3333333333334,27.25,606.6666666666666,-4.541666666666667,640,-1C673.3333333333334,2.541666666666667,686.6666666666666,43.416666666666664,720,43C753.3333333333334,42.583333333333336,783.3333333333334,6.583333333333334,800,-3"
            transform="matrix(1,0,0,1,0,204)"
        ></path>
        <path
            stroke-dasharray="100 20"
            d="M10,10C24.583333333333332,10.416666666666666,48.75,17.208333333333336,80,12C111.25,6.791666666666666,126.66666666666666,-16.875,160,-15C193.33333333333334,-13.125,206.66666666666666,19.333333333333332,240,21C273.3333333333333,22.666666666666668,286.6666666666667,-7,320,-7C353.3333333333333,-7,366.6666666666667,21,400,21C433.3333333333333,21,446.6666666666667,-8.041666666666666,480,-7C513.3333333333334,-5.958333333333333,526.6666666666666,24.75,560,26C593.3333333333334,27.25,606.6666666666666,-4.541666666666667,640,-1C673.3333333333334,2.541666666666667,686.6666666666666,43.416666666666664,720,43C753.3333333333334,42.583333333333336,783.3333333333334,6.583333333333334,800,-3"
            transform="matrix(1,0,0,1,0,153)"
        ></path>
        <path
            stroke-dasharray="100 20"
            d="M10,10C24.583333333333332,10.416666666666666,48.75,17.208333333333336,80,12C111.25,6.791666666666666,126.66666666666666,-16.875,160,-15C193.33333333333334,-13.125,206.66666666666666,19.333333333333332,240,21C273.3333333333333,22.666666666666668,286.6666666666667,-7,320,-7C353.3333333333333,-7,366.6666666666667,21,400,21C433.3333333333333,21,446.6666666666667,-8.041666666666666,480,-7C513.3333333333334,-5.958333333333333,526.6666666666666,24.75,560,26C593.3333333333334,27.25,606.6666666666666,-4.541666666666667,640,-1C673.3333333333334,2.541666666666667,686.6666666666666,43.416666666666664,720,43C753.3333333333334,42.583333333333336,783.3333333333334,6.583333333333334,800,-3"
            transform="matrix(1,0,0,1,0,102)"
        ></path>
        <path
            stroke-dasharray="200 50"
            d="M10,10C24.583333333333332,10.416666666666666,48.75,17.208333333333336,80,12C111.25,6.791666666666666,126.66666666666666,-16.875,160,-15C193.33333333333334,-13.125,206.66666666666666,19.333333333333332,240,21C273.3333333333333,22.666666666666668,286.6666666666667,-7,320,-7C353.3333333333333,-7,366.6666666666667,21,400,21C433.3333333333333,21,446.6666666666667,-8.041666666666666,480,-7C513.3333333333334,-5.958333333333333,526.6666666666666,24.75,560,26C593.3333333333334,27.25,606.6666666666666,-4.541666666666667,640,-1C673.3333333333334,2.541666666666667,686.6666666666666,43.416666666666664,720,43C753.3333333333334,42.583333333333336,783.3333333333334,6.583333333333334,800,-3"
            transform="matrix(1,0,0,1,0,51)"
        ></path>
    </g>
</svg>
