<svg xmlns="http://www.w3.org/2000/svg" version="1.1" xmlns:xlink="http://www.w3.org/1999/xlink" xmlns:svgjs="http://svgjs.dev/svgjs" viewBox="0 0 800 800" opacity="0.6"><defs><linearGradient x1="50%" y1="0%" x2="50%" y2="100%" id="uundulate-grad"><stop stop-color="hsl(0, 0%, 71%)" stop-opacity="1" offset="45%"></stop><stop stop-color="hsl(0, 0%, 28%)" stop-opacity="1" offset="100%"></stop></linearGradient></defs><g stroke-width="2" stroke="url(#uundulate-grad)" fill="none"><path d="M683.3543299510804 271.1546268908228C705.7141269200085 414.99974076175727 635.3654517986026 611.5639685394875 526.8119610287546 708.5563236336611C418.25847025890664 805.5486787278346 245.06265793468697 797.5130320592243 162.29757425580965 736.7179313428564C79.53249057693228 675.9228306264885 123.53150740840016 519.2581637236717 129.5395593701429 416.73984019509544C135.54761133188566 314.22151666651905 130.7309369622252 327.67999156025587 191.13622367217488 244.62997840568914C251.54151038212456 161.57996525112253 316.9394967697955 12.573808618772716 419.4849355779006 18.0997770531755C522.0303743860059 23.625745487578342 660.9945329821525 127.30951301988824 683.3543299510804 271.1546268908228C705.7141269200085 414.99974076175727 635.3654517986026 611.5639685394875 526.8119610287546 708.5563236336611 "></path><path d="M671.0345738212441 276.75657707822927C692.4222057045665 414.3475555634709 625.1321686319175 602.3655125682563 521.2983948520628 695.1408087452919C417.4646210722083 787.9161049223276 251.7990614577373 780.2298341958306 172.63245967794154 722.0779987280005C93.46585789814583 663.9261632601703 135.55187399781073 514.0730036139978 141.29870630904298 416.0119984997075C147.04553862027518 317.95099338541695 142.43828487538252 330.82431719681745 200.21725477185612 251.3851741794058C257.9962246683298 171.94603116199426 320.5508203434931 29.41840307887702 418.6377618121155 34.70411201613189C516.7247032807379 39.989820953386754 649.6469419379216 139.16559859298752 671.0345738212441 276.75657707822927C692.4222057045665 414.3475555634709 625.1321686319175 602.3655125682563 521.2983948520628 695.1408087452919 "></path><path d="M658.7148176914077 282.3584357129014C679.1302844891246 413.6952788124503 614.8988854652323 593.1669650442908 515.784828675371 681.7252023041884C416.6707718855098 770.2834395640859 258.5354649807876 762.9465447797024 182.9673451000735 707.4379745604102C107.39922521935938 651.9294043411179 147.57224058722136 508.8877519515895 153.057853247943 415.28406525158505C158.54346590866464 321.6803785515806 154.14563278853984 333.96855128064465 209.29828587153736 258.14027840038807C264.45093895453493 182.31200552013155 324.16214391719086 46.26290598624695 417.7905880463305 51.3083554263539C511.41903217546997 56.35380486646079 638.2993508936909 151.02159261335242 658.7148176914077 282.3584357129014C679.1302844891246 413.6952788124503 614.8988854652323 593.1669650442908 515.784828675371 681.7252023041884 "></path><path d="M646.3950768203604 287.9605384881985C665.8383785324717 413.04324620205466 604.6656175573362 583.9686616609504 510.2712777574684 668.3098400037101C415.8769379576006 752.6510183464695 265.27188376262694 745.6634995041998 193.30224578099444 692.7981945334451C121.33260779936194 639.9328895626904 159.592622435421 503.7027444298062 164.81701544563208 414.5563761440876C170.04140845584317 325.4100078583691 165.85299596048623 337.11302950509685 218.37933223000772 264.89562676199535C270.9056684995292 192.6782240188939 327.7734827496778 63.10765303424188 416.9434295393345 67.91284297720085C506.1133763289912 72.71803292015983 626.9517751082491 162.87783077434233 646.3950768203604 287.9605384881985C665.8383785324717 413.04324620205466 604.6656175573362 583.9686616609504 510.2712777574684 668.3098400037101 "></path><path d="M634.075320690524 293.56245815802686C652.5464573170298 412.3910304861902 594.432334390651 574.7701751721411 504.7577115807767 654.8942945977627C415.0830887709021 735.0184140233844 272.0082872856772 728.380271123228 203.6371312031264 678.158231401011C135.2659751205755 627.9361916787941 171.61298902483156 498.5175538025542 176.57616238453215 413.82850393112153C181.5393357442327 329.139454059689 177.56034387364355 340.2573246240802 227.46036332968896 271.65079201813387C277.3603827857344 203.0442594121875 331.3848063233755 79.95221697676806 416.0962557735494 84.51714742257911C500.80770522372325 89.08207786839012 615.6041840640182 174.73388582986354 634.075320690524 293.56245815802686C652.5464573170298 412.3910304861902 594.432334390651 574.7701751721411 504.7577115807767 654.8942945977627 "></path><path d="M621.7555645606876 299.1644693805895C639.2545361015877 411.73890632306006 584.1990512239659 565.5717802360663 499.24414540408475 641.4788407445499C414.28923958420376 717.3859012530335 278.74469080872757 711.0971342949906 213.97201662525828 663.5183598213114C149.19934244178904 615.9395853476323 183.6333556142422 493.3324547280365 188.33530932343217 413.10072327088983C193.03726303262215 332.86899181374315 189.26769178680087 343.401711295798 236.5413944293702 278.40604882700677C283.8150970719396 213.41038635821542 334.9961298970733 96.79687247202867 415.2490820077643 101.1215434206917C495.5020341184554 105.44621436935478 604.2565930197875 186.590032438119 621.7555645606876 299.1644693805895C639.2545361015877 411.73890632306006 584.1990512239659 565.5717802360663 499.24414540408475 641.4788407445499 "></path><path d="M609.4357779132731 304.7664195679961C625.9625843685678 411.0867211247737 573.9657375397026 556.3733242648352 493.7305487098149 628.0633258561809C413.49535987992726 699.7533274475264 285.48106381419973 693.8139364315971 224.3068715298121 648.8784272064556C163.13267924542447 603.9429179813142 195.65369168607464 488.1472946183626 200.09442574475406 412.3728815755019C204.5351598034335 336.59846853264116 200.97500918238006 346.5460369323596 245.62239501147337 285.1612446007234C290.2697808405666 223.77645226908714 338.6074229531929 113.64146693213297 414.4018777244012 117.72587838364808C490.19633249560934 121.81028983516319 592.9089714579785 198.44611801121835 609.4357779132731 304.7664195679961C625.9625843685678 411.0867211247737 573.9657375397026 556.3733242648352 493.7305487098149 628.0633258561809 "></path><path d="M597.1160217834367 310.3684307905587C612.6706631531258 410.4345969616436 563.7324543730174 547.1749293287603 488.2169825331231 614.6478720029679C412.7015106932289 682.1208146771756 292.21746733725 676.5307996033597 234.641756951944 634.238555626756C177.06604656663802 591.9463116501522 207.6740582754852 482.9621955438449 211.85357268365414 411.6451009152702C216.033087091823 340.3280062866953 212.68235709553744 349.6904236040774 254.7034261111546 291.9165014095963C296.7244951267718 234.14257921511512 342.21874652689064 130.48612242739352 413.5547039586161 134.33027438176072C484.8906613903414 138.17442633612785 581.5613804137477 210.30226461947387 597.1160217834367 310.3684307905587C612.6706631531258 410.4345969616436 563.7324543730174 547.1749293287603 488.2169825331231 614.6478720029679 "></path><path d="M584.7963114299675 315.970319942809C599.378787714051 409.782350728201 553.4992169826994 537.9764123223729 482.70346213279845 601.2322960794427C411.9077072828977 664.4881798365124 298.9539166366675 659.2475407048099 244.97668815044312 619.5985619767439C190.99945966421876 579.949583248678 219.69447064126302 477.7769743990149 223.61276539892134 410.917198184726C227.53106015657966 344.05742197043696 224.38975078506195 352.83468820548273 263.78450298720304 298.67163614815667C303.1792551893442 244.5085840908306 345.8301158769556 147.33065585234158 412.70757596919816 150.9345483095608C479.58503606144063 154.53844076678 570.2138351458841 222.1582891574169 584.7963114299675 315.970319942809C599.378787714051 409.782350728201 553.4992169826994 537.9764123223729 482.70346213279845 601.2322960794427 "></path><path d="M572.4765400413421 321.5723159065827C586.08685123982 409.1302113062819 543.2659185572252 528.778002127509 477.1898806973177 587.8168269674406C411.1138428374103 646.8556518073724 305.6903049009287 641.9643886177835 255.31155831378595 604.9586751382553C204.9328117266432 567.952961658727 231.71482197188453 472.59186006570815 235.3718970790323 410.1894022657051C239.02897218618006 347.78694446570216 236.0970834394302 355.9790596184115 272.8655188280952 305.4268776982405C309.6339542167603 254.8746957780695 349.44142419186426 164.17529608881307 411.860386944624 167.53892904888437C474.2793496973836 170.9025620089556 558.8662288428642 234.01442050688343 572.4765400413421 321.5723159065827C586.08685123982 409.1302113062819 543.2659185572252 528.778002127509 477.1898806973177 587.8168269674406 "></path><path d="M560.1567991702948 327.17434238793453C572.7949452831672 408.478102401941 533.0326506493291 519.5796224502233 471.676329779415 574.401388373017C410.32000890950087 629.2231542958107 312.42672368276806 624.6812670483353 265.64645899470696 590.3188188173447C218.8661943066458 555.9563705863543 243.73520382008422 467.40677624997954 247.13105927672143 409.46163686426246C250.52691473335864 351.5164974785454 247.8044466113766 359.1234615489184 281.9465651865656 312.18214976590247C316.0886837617545 265.24083798288655 353.05276302435107 181.0199668428627 411.01322843762796 184.143340305786C468.97369385090485 187.26671376870934 547.5186530574224 245.87058237392802 560.1567991702948 327.17434238793453C572.7949452831672 408.478102401941 533.0326506493291 519.5796224502233 471.676329779415 574.401388373017 "></path><path d="M547.8370430404584 332.77630783412997C559.5030240677252 407.8259324624437 522.7993674826439 510.38118173778116 466.1627636027232 560.9858887434369C409.5261597228025 611.5905957490927 319.16312720581834 607.3980844437308 275.98134441683885 575.678901461278C232.79956162785936 543.9597184788252 255.7555704094948 462.2216313990947 258.89020621562145 408.73381042766357C262.0248420217481 355.2459894562324 259.5117945245339 362.267802444269 291.0275962862468 318.9373607984081C322.5433980479597 275.6069191525473 356.6640865980488 197.86457656175605 410.16605467184286 200.74769052753146C463.6680227456369 203.6308044933068 536.1710620131917 257.72668320581636 547.8370430404584 332.77630783412997C559.5030240677252 407.8259324624437 522.7993674826439 510.38118173778116 466.1627636027232 560.9858887434369 "></path><path d="M535.517286910622 338.37828853911464C546.2111028522833 407.17377778173545 512.5660843159587 501.1827562841281 460.6491974260314 547.570404372646C408.73231053610414 593.9580524611638 325.8995307288686 590.1149170979153 286.3162298389708 561.0389993640002C246.7329289490729 531.9630816300851 267.77593699890537 457.0365018069989 270.64935315452146 408.00599924985374C273.52276931013756 358.9754966927085 271.21914243769123 365.4121585984087 300.10862738592806 325.6925870897029C328.9981123341649 285.9730155809971 360.27541017174656 214.70920153943854 409.31888090605776 217.35205600806592C458.36235164036896 219.99491047669335 524.8234709689608 269.58279929649376 535.517286910622 338.37828853911464C546.2111028522833 407.17377778173545 512.5660843159587 501.1827562841281 460.6491974260314 547.570404372646 "></path><path d="M523.1975307807857 343.9802387265211C532.9191816368414 406.5215925834492 502.33280114927356 491.98430031289706 455.13563124933967 534.154889484277C407.93846134940577 576.3254786556566 332.6359342519189 572.8317192345218 296.6511152611027 546.3990667491444C260.66629627028647 519.9664142637671 279.796303588316 451.851341697325 282.40850009342154 407.2781575544657C285.0206965985271 362.70497341160643 282.92649035084855 368.5564842349703 309.1896584856093 332.44778286341955C335.45282662037005 296.33908149186885 363.88673374544436 231.55379599954284 408.4717071402727 233.9563909710223C453.0566805351011 236.35898594250182 513.47587992473 281.43888486959304 523.1975307807857 343.9802387265211C532.9191816368414 406.5215925834492 502.33280114927356 491.98430031289706 455.13563124933967 534.154889484277 "></path><path d="M510.8777746509493 349.5822499490838C519.6272604213993 405.8694684203191 492.0995179825884 482.78590537682226 449.62206507264784 520.739435631064C407.14461216270735 558.6929658853057 339.37233777496925 555.5485824062844 306.98600068323464 531.7591951694448C274.5996635915 507.96980793260514 291.81667017772656 446.6662426228073 294.16764703232155 406.550376894234C296.51862388691654 366.43451116566064 294.63383826400593 371.70087090668807 318.2706895852906 339.20303967229245C341.90754090657526 306.7052084378968 367.4980573191421 248.3984514948034 407.6245333744876 250.56078696913494C447.7510094298332 252.72312244346648 502.1282888804992 293.29503147784857 510.8777746509493 349.5822499490838C519.6272604213993 405.8694684203191 492.0995179825884 482.78590537682226 449.62206507264784 520.739435631064 "></path><path d="M498.5580185211129 355.1842001364903C506.33533920595744 405.21728322203273 481.8662348159032 473.5874494055911 444.1084988959561 507.3239207426949C406.350762976009 541.0603920797987 346.10874129801954 538.2653845428908 317.3208861053665 517.1192625545889C288.5330309127135 495.97314056628704 303.83703676713714 441.4810825131334 305.92679397122157 405.822535198846C308.016551175306 370.1639878845586 306.34118617716325 374.84519654324964 327.35172068497184 345.9582354460091C348.3622551927804 317.0712743487685 371.10938089283985 265.2430459549077 406.77735960870257 267.16512193209127C442.4453383245652 269.0871979092749 490.78069783626836 305.15111705094785 498.5580185211129 355.1842001364903C506.33533920595744 405.21728322203273 481.8662348159032 473.5874494055911 444.1084988959561 507.3239207426949 "></path><path d="M486.2382623912765 360.7861808414749C493.04341799051554 404.56512854132455 471.63295164921806 464.38902395193804 438.5949327192643 493.9084363719039C405.5569137893106 523.4278487918698 352.8451448210698 520.9822171970753 327.6557715274985 502.47936045731126C302.46639823392707 483.9765037175471 315.85740335654776 436.29595292103767 317.68594091012164 405.09472402103614C319.5144784636955 373.8934951210347 318.0485340903206 377.98955269738934 336.4327517846531 352.7134617373039C354.8169694789856 327.43737077721835 374.7207044665376 282.08767093259013 405.93018584291747 283.7694874126258C437.1396672192973 285.45130389266143 479.4331067920375 317.0072331416253 486.2382623912765 360.7861808414749C493.04341799051554 404.56512854132455 471.63295164921806 464.38902395193804 438.5949327192643 493.9084363719039 "></path><path d="M473.91850626144014 366.3881615464595C479.7514967750735 403.9129738606164 461.3996684825329 455.1905984982851 433.08136654257254 480.49295200111305C404.7630646026122 505.7953055039409 359.5815483441201 503.69904985125993 337.99065694963036 487.8394583600335C316.3997655551406 471.9798668688071 327.87776994595833 431.1108233289419 329.44508784902166 404.3669128432263C331.012405752085 377.6230023575107 329.7558820034779 381.13390885152904 345.5137828843343 359.4686880285986C361.2716837651908 337.8034672056682 378.33202804023534 298.93229591027256 405.08301207713237 300.37385289316023C431.8339961140294 301.81540987604797 468.08551574780677 328.8633492323027 473.91850626144014 366.3881615464595C479.7514967750735 403.9129738606164 461.3996684825329 455.1905984982851 433.08136654257254 480.49295200111305 "></path><path d="M461.5987806491819 371.990111733866C466.45960607720974 403.26078866233007 451.16641583342584 445.992142527054 427.5678308834589 467.07743711274395C403.96924593349195 488.16273169843384 366.3179823847485 486.41585198786635 348.32557288934044 473.19952574517765C330.3331633939323 459.983199502489 339.89816705294703 425.92566321926796 341.2042653054998 403.6390711478383C342.5103635580526 381.3524790764087 341.46326043421334 384.2782344880906 354.59484450159374 366.22388380231524C367.7264285689741 348.16953311653987 381.9433821315112 315.77689037037686 404.2358688289254 316.9781878561166C426.5283555263396 318.1794853418564 456.73795522115404 340.719434805402 461.5987806491819 371.990111733866C466.45960607720974 403.26078866233007 451.16641583342584 445.992142527054 427.5678308834589 467.07743711274395 "></path><path d="M449.27900926055645 377.5920924388506C453.1676696029787 402.60863398162184 440.9331174079516 436.793717073401 422.054249447978 453.6619527419529C403.17538148800446 470.5301884105048 373.05437064900974 469.1326846420509 358.66044305268326 458.5596236478999C344.2665154563568 447.986562653749 351.9185183835686 420.74053362717217 352.9633969856108 402.9112599700285C354.00827558765303 385.08198631288474 353.1705930885816 387.42259064223026 363.6758603424859 372.97911009361C374.18112759639024 358.5356295449897 385.55469044641995 332.6215153480593 403.3886798043513 333.58255333665113C421.2226691622826 334.5435913252429 445.3903489181342 352.5755508960794 449.27900926055645 377.5920924388506C453.1676696029787 402.60863398162184 440.9331174079516 436.793717073401 422.054249447978 453.6619527419529 "></path><path d="M436.95926838950913 383.1940884026243C439.8757636463258 401.9564945597027 430.6998495000555 427.5953068785371 416.54069853007536 440.24648362995106C402.38154756009516 452.897660381365 379.79078943084914 451.8495325550245 368.9953437336043 443.9197368094113C358.1998980363594 435.9899410637981 363.93890023176823 415.5554192938655 364.7225591832999 402.18346405100766C365.50621813483156 388.8115088081499 364.87795626052804 390.566962055159 372.7569067009562 379.73435164369386C380.63585714138446 368.90174123222863 389.16602927890676 349.46615558453084 402.54152129735525 350.18693407597465C415.91701331580373 350.9077125674185 434.04277313269245 364.43168224554586 436.95926838950913 383.1940884026243C439.8757636463258 401.9564945597027 430.6998495000555 427.5953068785371 416.54069853007536 440.24648362995106 "></path><path d="M424.63951225967276 388.79605384881984C426.5838424308839 401.3043246202055 420.46656633337034 418.39686616609504 411.02713235338354 426.830984000371C401.5876983733968 435.26510183464694 386.52719295389943 434.56634995042 379.33022915573616 429.2798194533445C372.1332653575729 423.99328895626905 375.9592668211788 410.37027444298064 376.4817061221999 401.4556376144088C377.004145423221 392.5410007858369 376.58530417368536 393.71130295050966 381.83793780063746 386.4895626761995C387.0905714275896 379.26782240188936 392.7773528526045 366.3107653034242 401.69434753157014 366.7912842977201C410.61134221053584 367.271803292016 422.6951820884616 376.28778307743426 424.63951225967276 388.79605384881984C426.5838424308839 401.3043246202055 420.46656633337034 418.39686616609504 411.02713235338354 426.830984000371 "></path><path d="M412.3197561298364 394.39803455380445C413.29192121544196 400.65216993949724 410.23328316668517 409.19844071244205 405.51356617669177 413.41549962958004C400.79384918669837 417.63255854671803 393.2635964769497 417.2831826046045 389.6651145778681 414.6399173560668C386.06663267878645 411.99665210752903 387.97963341058943 405.18514485088485 388.2408530611 400.7278264365989C388.50207271161054 396.270508022313 388.2926520868427 396.85565910464936 390.91896890031876 393.2447889674943C393.54528571379484 389.6339188303392 396.38867642630225 383.15539028110663 400.8471737657851 383.39564977825455C405.30567110526795 383.6359092754025 411.3475910442308 388.14389916811166 412.3197561298364 394.39803455380445C413.29192121544196 400.65216993949724 410.23328316668517 409.19844071244205 405.51356617669177 413.41549962958004 "></path></g></svg>