<svg xmlns="http://www.w3.org/2000/svg" version="1.1" xmlns:xlink="http://www.w3.org/1999/xlink" xmlns:svgjs="http://svgjs.dev/svgjs" width="196" height="196"><svg width="196" height="196" viewBox="0 0 196 196" fill="none" xmlns="http://www.w3.org/2000/svg">
<path d="M6 34C6 18.536 18.536 6 34 6H68C83.464 6 96 18.536 96 34V68C96 83.464 83.464 96 68 96H34C18.536 96 6 83.464 6 68V34Z" fill="black"></path>
<path d="M52.0938 75H39.9375V29.3125H66.9375V39.2188H52.0938V47.9375H65.7812V57.8438H52.0938V75Z" fill="white"></path>
<path d="M6 128C6 112.536 18.536 100 34 100H68C83.464 100 96 112.536 96 128V162C96 177.464 83.464 190 68 190H34C18.536 190 6 177.464 6 162V128Z" fill="black"></path>
<path d="M70.7812 123.312V150.812C70.7812 154.646 70.0521 157.979 68.5938 160.812C67.1354 163.625 64.9479 165.802 62.0312 167.344C59.1146 168.865 55.4583 169.625 51.0625 169.625C44.7708 169.625 39.9688 168.01 36.6562 164.781C33.3438 161.552 31.6875 156.99 31.6875 151.094V123.312H44.0938V150.125C44.0938 153.354 44.6979 155.698 45.9062 157.156C47.1146 158.615 48.8958 159.344 51.25 159.344C52.9375 159.344 54.3125 159.031 55.375 158.406C56.4375 157.76 57.2083 156.75 57.6875 155.375C58.1875 154 58.4375 152.229 58.4375 150.062V123.312H70.7812Z" fill="white"></path>
<path d="M100 128C100 112.536 112.536 100 128 100H162C177.464 100 190 112.536 190 128V162C190 177.464 177.464 190 162 190H128C112.536 190 100 177.464 100 162V128Z" fill="black"></path>
<path d="M171.094 169H156.812L147.906 154.719L139.094 169H125.125L140.281 145.625L126.031 123.312H139.719L147.969 137.438L155.906 123.312H170L155.531 146.594L171.094 169Z" fill="white"></path>
</svg><style>@media (prefers-color-scheme: light) { :root { filter: none; } }
@media (prefers-color-scheme: dark) { :root { filter: none; } }
</style></svg>