<svg
    xmlns="http://www.w3.org/2000/svg"
    version="1.1"
    xmlns:xlink="http://www.w3.org/1999/xlink"
    xmlns:svgjs="http://svgjs.dev/svgjs"
    viewBox="0 0 1422 800"
    opacity="0.57"
>
    <g
        stroke-width="1"
        stroke="hsl(0, 0%, 56%)"
        fill="none"
        stroke-linecap="round"
    >
        <path
            d="M 0 871 Q 355.5 25 711 400 Q 1066.5 775 1422 871"
            opacity="0.05"
        ></path>
        <path
            d="M 0 858 Q 355.5 25 711 400 Q 1066.5 775 1422 858"
            opacity="0.06"
        ></path>
        <path
            d="M 0 845 Q 355.5 25 711 400 Q 1066.5 775 1422 845"
            opacity="0.08"
        ></path>
        <path
            d="M 0 832 Q 355.5 25 711 400 Q 1066.5 775 1422 832"
            opacity="0.09"
        ></path>
        <path
            d="M 0 819 Q 355.5 25 711 400 Q 1066.5 775 1422 819"
            opacity="0.11"
        ></path>
        <path
            d="M 0 806 Q 355.5 25 711 400 Q 1066.5 775 1422 806"
            opacity="0.12"
        ></path>
        <path
            d="M 0 793 Q 355.5 25 711 400 Q 1066.5 775 1422 793"
            opacity="0.14"
        ></path>
        <path
            d="M 0 780 Q 355.5 25 711 400 Q 1066.5 775 1422 780"
            opacity="0.15"
        ></path>
        <path
            d="M 0 767 Q 355.5 25 711 400 Q 1066.5 775 1422 767"
            opacity="0.17"
        ></path>
        <path
            d="M 0 754 Q 355.5 25 711 400 Q 1066.5 775 1422 754"
            opacity="0.18"
        ></path>
        <path
            d="M 0 741 Q 355.5 25 711 400 Q 1066.5 775 1422 741"
            opacity="0.19"
        ></path>
        <path
            d="M 0 728 Q 355.5 25 711 400 Q 1066.5 775 1422 728"
            opacity="0.21"
        ></path>
        <path
            d="M 0 715 Q 355.5 25 711 400 Q 1066.5 775 1422 715"
            opacity="0.22"
        ></path>
        <path
            d="M 0 702 Q 355.5 25 711 400 Q 1066.5 775 1422 702"
            opacity="0.24"
        ></path>
        <path
            d="M 0 689 Q 355.5 25 711 400 Q 1066.5 775 1422 689"
            opacity="0.25"
        ></path>
        <path
            d="M 0 676 Q 355.5 25 711 400 Q 1066.5 775 1422 676"
            opacity="0.27"
        ></path>
        <path
            d="M 0 663 Q 355.5 25 711 400 Q 1066.5 775 1422 663"
            opacity="0.28"
        ></path>
        <path
            d="M 0 650 Q 355.5 25 711 400 Q 1066.5 775 1422 650"
            opacity="0.29"
        ></path>
        <path
            d="M 0 637 Q 355.5 25 711 400 Q 1066.5 775 1422 637"
            opacity="0.31"
        ></path>
        <path
            d="M 0 624 Q 355.5 25 711 400 Q 1066.5 775 1422 624"
            opacity="0.32"
        ></path>
        <path
            d="M 0 611 Q 355.5 25 711 400 Q 1066.5 775 1422 611"
            opacity="0.34"
        ></path>
        <path
            d="M 0 598 Q 355.5 25 711 400 Q 1066.5 775 1422 598"
            opacity="0.35"
        ></path>
        <path
            d="M 0 585 Q 355.5 25 711 400 Q 1066.5 775 1422 585"
            opacity="0.37"
        ></path>
        <path
            d="M 0 572 Q 355.5 25 711 400 Q 1066.5 775 1422 572"
            opacity="0.38"
        ></path>
        <path
            d="M 0 559 Q 355.5 25 711 400 Q 1066.5 775 1422 559"
            opacity="0.40"
        ></path>
        <path
            d="M 0 546 Q 355.5 25 711 400 Q 1066.5 775 1422 546"
            opacity="0.41"
        ></path>
        <path
            d="M 0 533 Q 355.5 25 711 400 Q 1066.5 775 1422 533"
            opacity="0.42"
        ></path>
        <path
            d="M 0 520 Q 355.5 25 711 400 Q 1066.5 775 1422 520"
            opacity="0.44"
        ></path>
        <path
            d="M 0 507 Q 355.5 25 711 400 Q 1066.5 775 1422 507"
            opacity="0.45"
        ></path>
        <path
            d="M 0 494 Q 355.5 25 711 400 Q 1066.5 775 1422 494"
            opacity="0.47"
        ></path>
        <path
            d="M 0 481 Q 355.5 25 711 400 Q 1066.5 775 1422 481"
            opacity="0.48"
        ></path>
        <path
            d="M 0 468 Q 355.5 25 711 400 Q 1066.5 775 1422 468"
            opacity="0.50"
        ></path>
        <path
            d="M 0 455 Q 355.5 25 711 400 Q 1066.5 775 1422 455"
            opacity="0.51"
        ></path>
        <path
            d="M 0 442 Q 355.5 25 711 400 Q 1066.5 775 1422 442"
            opacity="0.53"
        ></path>
        <path
            d="M 0 429 Q 355.5 25 711 400 Q 1066.5 775 1422 429"
            opacity="0.54"
        ></path>
        <path
            d="M 0 416 Q 355.5 25 711 400 Q 1066.5 775 1422 416"
            opacity="0.55"
        ></path>
        <path
            d="M 0 403 Q 355.5 25 711 400 Q 1066.5 775 1422 403"
            opacity="0.57"
        ></path>
        <path
            d="M 0 390 Q 355.5 25 711 400 Q 1066.5 775 1422 390"
            opacity="0.58"
        ></path>
        <path
            d="M 0 377 Q 355.5 25 711 400 Q 1066.5 775 1422 377"
            opacity="0.60"
        ></path>
        <path
            d="M 0 364 Q 355.5 25 711 400 Q 1066.5 775 1422 364"
            opacity="0.61"
        ></path>
        <path
            d="M 0 351 Q 355.5 25 711 400 Q 1066.5 775 1422 351"
            opacity="0.63"
        ></path>
        <path
            d="M 0 338 Q 355.5 25 711 400 Q 1066.5 775 1422 338"
            opacity="0.64"
        ></path>
        <path
            d="M 0 325 Q 355.5 25 711 400 Q 1066.5 775 1422 325"
            opacity="0.65"
        ></path>
        <path
            d="M 0 312 Q 355.5 25 711 400 Q 1066.5 775 1422 312"
            opacity="0.67"
        ></path>
        <path
            d="M 0 299 Q 355.5 25 711 400 Q 1066.5 775 1422 299"
            opacity="0.68"
        ></path>
        <path
            d="M 0 286 Q 355.5 25 711 400 Q 1066.5 775 1422 286"
            opacity="0.70"
        ></path>
        <path
            d="M 0 273 Q 355.5 25 711 400 Q 1066.5 775 1422 273"
            opacity="0.71"
        ></path>
        <path
            d="M 0 260 Q 355.5 25 711 400 Q 1066.5 775 1422 260"
            opacity="0.73"
        ></path>
        <path
            d="M 0 247 Q 355.5 25 711 400 Q 1066.5 775 1422 247"
            opacity="0.74"
        ></path>
        <path
            d="M 0 234 Q 355.5 25 711 400 Q 1066.5 775 1422 234"
            opacity="0.76"
        ></path>
        <path
            d="M 0 221 Q 355.5 25 711 400 Q 1066.5 775 1422 221"
            opacity="0.77"
        ></path>
        <path
            d="M 0 208 Q 355.5 25 711 400 Q 1066.5 775 1422 208"
            opacity="0.78"
        ></path>
        <path
            d="M 0 195 Q 355.5 25 711 400 Q 1066.5 775 1422 195"
            opacity="0.80"
        ></path>
        <path
            d="M 0 182 Q 355.5 25 711 400 Q 1066.5 775 1422 182"
            opacity="0.81"
        ></path>
        <path
            d="M 0 169 Q 355.5 25 711 400 Q 1066.5 775 1422 169"
            opacity="0.83"
        ></path>
        <path
            d="M 0 156 Q 355.5 25 711 400 Q 1066.5 775 1422 156"
            opacity="0.84"
        ></path>
        <path
            d="M 0 143 Q 355.5 25 711 400 Q 1066.5 775 1422 143"
            opacity="0.86"
        ></path>
        <path
            d="M 0 130 Q 355.5 25 711 400 Q 1066.5 775 1422 130"
            opacity="0.87"
        ></path>
        <path
            d="M 0 117 Q 355.5 25 711 400 Q 1066.5 775 1422 117"
            opacity="0.88"
        ></path>
        <path
            d="M 0 104 Q 355.5 25 711 400 Q 1066.5 775 1422 104"
            opacity="0.90"
        ></path>
        <path
            d="M 0 91 Q 355.5 25 711 400 Q 1066.5 775 1422 91"
            opacity="0.91"
        ></path>
        <path
            d="M 0 78 Q 355.5 25 711 400 Q 1066.5 775 1422 78"
            opacity="0.93"
        ></path>
        <path
            d="M 0 65 Q 355.5 25 711 400 Q 1066.5 775 1422 65"
            opacity="0.94"
        ></path>
        <path
            d="M 0 52 Q 355.5 25 711 400 Q 1066.5 775 1422 52"
            opacity="0.96"
        ></path>
        <path
            d="M 0 39 Q 355.5 25 711 400 Q 1066.5 775 1422 39"
            opacity="0.97"
        ></path>
        <path
            d="M 0 26 Q 355.5 25 711 400 Q 1066.5 775 1422 26"
            opacity="0.99"
        ></path>
    </g>
</svg>
