<svg xmlns="http://www.w3.org/2000/svg" version="1.1" xmlns:xlink="http://www.w3.org/1999/xlink" xmlns:svgjs="http://svgjs.dev/svgjs" viewBox="0 0 1422 800"><defs><linearGradient x1="50%" y1="0%" x2="50%" y2="100%" id="oooscillate-grad"><stop stop-color="hsl(206, 2%, 36%)" stop-opacity="1" offset="0%"></stop><stop stop-color="hsl(331, 0%, 67%)" stop-opacity="1" offset="100%"></stop></linearGradient></defs><g stroke-width="1.5" stroke="hsl(0, 0%, 0%)" fill="none" stroke-linecap="round"><path d="M 0 1045 Q 355.5 215 711 400 Q 1066.5 585 1422 1045" opacity="0.33"></path><path d="M 0 990 Q 355.5 215 711 400 Q 1066.5 585 1422 990" opacity="0.95"></path><path d="M 0 935 Q 355.5 215 711 400 Q 1066.5 585 1422 935" opacity="0.28"></path><path d="M 0 880 Q 355.5 215 711 400 Q 1066.5 585 1422 880" opacity="0.21"></path><path d="M 0 825 Q 355.5 215 711 400 Q 1066.5 585 1422 825" opacity="0.91"></path><path d="M 0 770 Q 355.5 215 711 400 Q 1066.5 585 1422 770" opacity="0.24"></path><path d="M 0 715 Q 355.5 215 711 400 Q 1066.5 585 1422 715" opacity="0.37"></path><path d="M 0 660 Q 355.5 215 711 400 Q 1066.5 585 1422 660" opacity="0.91"></path><path d="M 0 605 Q 355.5 215 711 400 Q 1066.5 585 1422 605" opacity="0.37"></path><path d="M 0 550 Q 355.5 215 711 400 Q 1066.5 585 1422 550" opacity="0.98"></path><path d="M 0 495 Q 355.5 215 711 400 Q 1066.5 585 1422 495" opacity="0.86"></path><path d="M 0 440 Q 355.5 215 711 400 Q 1066.5 585 1422 440" opacity="0.47"></path><path d="M 0 385 Q 355.5 215 711 400 Q 1066.5 585 1422 385" opacity="0.18"></path><path d="M 0 330 Q 355.5 215 711 400 Q 1066.5 585 1422 330" opacity="0.20"></path><path d="M 0 275 Q 355.5 215 711 400 Q 1066.5 585 1422 275" opacity="0.59"></path><path d="M 0 220 Q 355.5 215 711 400 Q 1066.5 585 1422 220" opacity="0.87"></path><path d="M 0 165 Q 355.5 215 711 400 Q 1066.5 585 1422 165" opacity="0.78"></path><path d="M 0 110 Q 355.5 215 711 400 Q 1066.5 585 1422 110" opacity="0.82"></path></g></svg>